<?xml version="1.0" encoding="UTF-8"?>
<svg version="1.1" xmlns="http://www.w3.org/2000/svg" width="586" height="426">
<path d="M0 0 C1.8152921 0.00113168 3.63058603 0.00048839 5.44587708 -0.00177002 C10.31678132 -0.0029056 15.1872819 0.02041388 20.05809331 0.04852581 C25.16960237 0.0737347 30.2811233 0.07589668 35.39268494 0.08062744 C45.04659956 0.09300046 54.7003304 0.12574433 64.35416454 0.1660254 C75.35553261 0.21092094 86.35691001 0.23277464 97.35834706 0.25280714 C119.96548057 0.29448272 142.57245161 0.36472304 165.17944336 0.45410156 C164.51434525 5.05859642 163.56067727 7.9055518 160.92944336 11.76660156 C157.75701684 16.55113869 154.90390436 21.40476718 152.17944336 26.45410156 C149.60906556 31.21786842 146.94903365 35.85554971 143.99194336 40.39160156 C139.86917623 46.78683075 136.25336328 53.44100914 132.58569336 60.10253906 C129.19463207 66.25678546 125.63304681 72.30685089 122.05541992 78.35400391 C116.66420482 87.47041397 111.35137683 96.62095452 106.18725586 105.86816406 C102.99237422 111.58097368 99.72782021 117.22371223 96.24194336 122.76660156 C93.31779521 127.45808457 90.72066851 132.22342626 88.31616211 137.20019531 C86.89517721 140.01774957 85.248956 142.6361036 83.54663086 145.29003906 C78.47937716 153.31077778 73.91471762 161.65448117 69.2878418 169.93457031 C67.30610006 173.47655733 65.28868116 176.98581878 63.17944336 180.45410156 C61.67702264 182.93180919 60.17789453 185.41149179 58.67944336 187.89160156 C58.28885742 188.53419922 57.89827148 189.17679688 57.49584961 189.83886719 C55.20512271 193.63746314 53.16221724 197.48346976 51.17944336 201.45410156 C49.59427467 204.26944946 47.95139937 207.04955418 46.30444336 209.82910156 C45.6721582 210.90417969 45.6721582 210.90417969 45.02709961 212.00097656 C42.9146488 215.57986876 40.76655189 219.12971913 38.55053711 222.64550781 C36.62260734 225.7126688 34.82664645 228.82102838 33.11694336 232.01660156 C29.1712136 239.37249111 24.95271861 246.5394474 20.62280273 253.67285156 C17.68788284 258.53556113 14.91316377 263.47589141 12.17944336 268.45410156 C10.47275471 271.559178 8.76428702 274.66326147 7.05444336 277.76660156 C6.62518555 278.55099609 6.19592773 279.33539063 5.75366211 280.14355469 C3.74547801 283.77991266 1.71155414 287.15423707 -0.82055664 290.45410156 C-1.62542703 291.97827472 -2.3948646 293.52154172 -3.13305664 295.07910156 C-6.29060618 301.51636774 -10.00133104 307.54978667 -13.80493164 313.62207031 C-17.39231095 319.37401496 -20.73507486 325.0969416 -23.68383789 331.20019531 C-25.10013307 334.00845069 -26.7391808 336.61870521 -28.43774414 339.26269531 C-32.31858132 345.41283559 -35.90993767 351.75374288 -39.38305664 358.14160156 C-41.04910901 361.17873309 -42.85906367 364.03670594 -44.82055664 366.89160156 C-47.36133535 370.63522993 -49.37678478 374.45282653 -51.34399414 378.52050781 C-56.32885474 388.42429169 -62.05027362 397.99277158 -67.82055664 407.45410156 C-68.84335664 409.14041028 -69.86416393 410.82792913 -70.88305664 412.51660156 C-71.3277832 413.25007813 -71.77250977 413.98355469 -72.23071289 414.73925781 C-74.49481101 418.6054696 -76.64469562 422.53755172 -78.82055664 426.45410156 C-161.98055664 426.45410156 -245.14055664 426.45410156 -330.82055664 426.45410156 C-327.82474289 418.96456719 -324.3621817 412.12461337 -319.82055664 405.45410156 C-318.63379892 403.40505546 -317.49740741 401.33152091 -316.35961914 399.25488281 C-313.27722303 393.64554775 -310.12184376 388.07676038 -306.97583008 382.50292969 C-306.2251575 381.17164392 -305.47573711 379.83965103 -304.7277832 378.50683594 C-301.0755922 371.99978703 -297.34378585 365.6230827 -293.12133789 359.46582031 C-291.45276854 356.88530015 -290.14216286 354.19662418 -288.82055664 351.42675781 C-287.42056484 348.66505524 -285.76102422 346.09757006 -284.06665039 343.50878906 C-282.73116343 341.37263151 -282.73116343 341.37263151 -281.44946289 338.68457031 C-279.57685547 334.97079013 -277.47961007 331.44370761 -275.32055664 327.89160156 C-274.9299707 327.24513672 -274.53938477 326.59867187 -274.13696289 325.93261719 C-272.5480438 323.30314335 -270.95625705 320.67569744 -269.35180664 318.05566406 C-266.62278631 313.41911421 -264.07118307 308.68135142 -261.49243164 303.95996094 C-261.06446289 303.18330078 -260.63649414 302.40664063 -260.19555664 301.60644531 C-259.6193457 300.55444946 -259.6193457 300.55444946 -259.03149414 299.48120117 C-257.75965342 297.35215006 -256.31894185 295.42804999 -254.82055664 293.45410156 C-254.07909001 292.03340821 -253.37283656 290.59399072 -252.69555664 289.14160156 C-249.78113864 283.17059883 -246.35651508 277.54295796 -242.90649414 271.87207031 C-242.55296875 271.28731934 -242.19944336 270.70256836 -241.83520508 270.10009766 C-240.91704576 268.61062939 -239.95328781 267.14950781 -238.98461914 265.69238281 C-238.60047852 264.95375 -238.21633789 264.21511719 -237.82055664 263.45410156 C-238.55083692 260.35281441 -238.55083692 260.35281441 -240.94555664 258.76660156 C-245.75826965 254.89550632 -249.52597391 250.06625113 -253.38305664 245.26660156 C-255.24012593 243.1238293 -256.82862865 241.56106245 -259.00805664 239.82910156 C-261.82055664 237.45410156 -261.82055664 237.45410156 -262.76586914 235.50878906 C-264.01060317 233.08386277 -265.39643859 231.9133091 -267.50805664 230.20410156 C-271.13415878 227.14498994 -274.22514355 223.87620737 -277.27758789 220.25097656 C-278.78807524 218.429613 -278.78807524 218.429613 -280.51977539 216.84472656 C-281.82055664 215.45410156 -281.82055664 215.45410156 -281.82055664 213.45410156 C-282.41513672 213.19000488 -283.0097168 212.9259082 -283.62231445 212.65380859 C-285.90773624 211.40652264 -287.25079261 210.17764559 -288.99243164 208.25878906 C-289.57049561 207.6291626 -290.14855957 206.99953613 -290.74414062 206.35083008 C-291.34685791 205.68365967 -291.9495752 205.01648926 -292.57055664 204.32910156 C-293.82595453 202.95959132 -295.08245657 201.59109237 -296.34008789 200.22363281 C-296.94159668 199.56830566 -297.54310547 198.91297852 -298.1628418 198.23779297 C-300.14181238 196.10843228 -302.18234407 194.05153393 -304.25805664 192.01660156 C-307.38315164 188.94469967 -310.25011071 185.70951826 -313.10571289 182.38769531 C-314.78059963 180.49915559 -316.52003251 178.72254509 -318.32055664 176.95410156 C-321.38398058 173.94525979 -324.18253089 170.77056682 -326.97680664 167.51269531 C-329.61490121 164.56719566 -332.45455414 161.84448724 -335.31665039 159.11816406 C-336.82055664 157.45410156 -336.82055664 157.45410156 -336.82055664 155.45410156 C-337.48055664 155.45410156 -338.14055664 155.45410156 -338.82055664 155.45410156 C-340.33618164 153.95019531 -340.33618164 153.95019531 -342.07055664 151.89160156 C-342.69188477 151.16199219 -343.31321289 150.43238281 -343.95336914 149.68066406 C-344.56954102 148.94589844 -345.18571289 148.21113281 -345.82055664 147.45410156 C-346.86038868 146.22338248 -347.90191765 144.99409405 -348.94555664 143.76660156 C-349.38125977 143.24710938 -349.81696289 142.72761719 -350.26586914 142.19238281 C-353.18730861 138.92594924 -356.35788013 135.90462015 -359.49633789 132.84863281 C-360.36645508 131.9965625 -361.23657227 131.14449219 -362.13305664 130.26660156 C-363.01606445 129.40679687 -363.89907227 128.54699219 -364.80883789 127.66113281 C-366.82055664 125.45410156 -366.82055664 125.45410156 -366.82055664 123.45410156 C-367.48055664 123.45410156 -368.14055664 123.45410156 -368.82055664 123.45410156 C-368.82055664 122.79410156 -368.82055664 122.13410156 -368.82055664 121.45410156 C-369.3890332 121.22207031 -369.95750977 120.99003906 -370.54321289 120.75097656 C-373.38669087 119.13170608 -375.10634762 117.16532852 -377.25805664 114.70410156 C-378.04696289 113.80820313 -378.83586914 112.91230469 -379.64868164 111.98925781 C-381.30039696 110.06126637 -382.91750008 108.11946897 -384.50805664 106.14160156 C-386.32257641 104.03283534 -387.85471019 102.56872716 -390.00805664 100.89160156 C-392.91936469 98.36846792 -393.50303931 96.93611164 -394.82055664 93.45410156 C-395.42770508 93.15503906 -396.03485352 92.85597656 -396.66040039 92.54785156 C-399.195252 91.26438239 -400.45261744 89.82230527 -402.25805664 87.64160156 C-404.31755233 85.19760775 -406.34162918 82.94460842 -408.63305664 80.70410156 C-410.82055664 78.45410156 -410.82055664 78.45410156 -411.88305664 76.26660156 C-413.11421135 73.88636912 -414.42820607 73.5799136 -416.82055664 72.45410156 C-419.07055664 70.57910156 -419.07055664 70.57910156 -420.82055664 68.45410156 C-420.82055664 67.13410156 -420.82055664 65.81410156 -420.82055664 64.45410156 C-400.3310357 59.07736326 -380.38370113 55.5082575 -359.34008789 53.20019531 C-354.7739006 52.69828662 -350.23459176 52.08772544 -345.68774414 51.43457031 C-336.86006651 50.2434133 -328.02598337 49.75709219 -319.13305664 49.32910156 C-318.29074493 49.28740845 -317.44843323 49.24571533 -316.58059692 49.20275879 C-304.31771809 48.60019744 -292.09759678 48.00415768 -279.82055664 48.45410156 C-278.50829102 48.50050781 -277.19602539 48.54691406 -275.84399414 48.59472656 C-256.6267264 49.31091625 -237.77481665 50.68340459 -218.79956055 53.953125 C-215.5489823 54.49977199 -212.29197999 54.9858975 -209.03149414 55.46972656 C-204.4177017 56.17531696 -199.96010048 57.02639447 -195.44555664 58.20410156 C-194.80255615 58.37111572 -194.15955566 58.53812988 -193.49707031 58.71020508 C-192.06865088 59.08167072 -190.64085816 59.45555263 -189.21362305 59.83154297 C-186.52842759 60.53009922 -183.83710952 61.20156909 -181.14477539 61.87207031 C-170.73941868 64.48679327 -160.69924266 67.2242401 -150.82055664 71.45410156 C-149.76481445 71.88851562 -148.70907227 72.32292969 -147.62133789 72.77050781 C-142.33333089 74.94945289 -137.0759854 77.19804902 -131.82055664 79.45410156 C-131.54493896 78.97690674 -131.26932129 78.49971191 -130.98535156 78.00805664 C-126.09816915 69.61290286 -121.17605308 61.38343828 -114.88305664 53.95410156 C-114.21149536 53.15516479 -114.21149536 53.15516479 -113.52636719 52.34008789 C-111.69379193 50.24714675 -110.13488976 48.61098797 -107.62915039 47.36035156 C-105.22898558 46.15767718 -104.98230873 44.84594409 -103.82055664 42.45410156 C-97.54355965 35.63907626 -90.30150484 30.16077255 -82.63305664 25.01660156 C-81.89764648 24.52095703 -81.16223633 24.0253125 -80.40454102 23.51464844 C-76.05097169 20.66793451 -71.67786332 18.36256957 -66.89013672 16.33227539 C-64.12987101 15.16102663 -61.45465712 13.82679372 -58.75805664 12.51660156 C-51.29428621 9.07511856 -43.70896974 6.6863169 -35.82055664 4.45410156 C-35.17513668 4.26972802 -34.52971672 4.08535447 -33.86473858 3.89539385 C-22.45532781 0.71081438 -11.80373855 -0.10488314 0 0 Z " fill="#F58331" transform="translate(420.820556640625,-0.4541015625)"/>
<path d="M0 0 C0.99 0.33 1.98 0.66 3 1 C3 1.66 3 2.32 3 3 C3.53367187 3.14695312 4.06734375 3.29390625 4.6171875 3.4453125 C10.92462028 5.34408984 16.70589093 8.03218131 22 12 C22 12.66 22 13.32 22 14 C23.8253125 14.3403125 23.8253125 14.3403125 25.6875 14.6875 C30.08213728 15.79764356 31.87871118 17.66094685 35 21 C36.81385964 22.35970662 38.64951351 23.69057698 40.5 25 C43.54066644 27.16197923 46.42644826 29.23056296 49 31.9375 C50.91264601 34.22694838 50.91264601 34.22694838 54 35 C59 40.46511628 59 40.46511628 59 43 C60.65 43.66 62.3 44.32 64 45 C64 45.66 64 46.32 64 47 C64.66 47 65.32 47 66 47 C67.01866229 48.65532623 68.01810813 50.32260138 69 52 C69.66 52.33 70.32 52.66 71 53 C71 53.66 71 54.32 71 55 C71.66 55 72.32 55 73 55 C75.62788203 57.30935087 76.87994369 58.63983107 78 62 C78.97216068 63.02708501 79.97556131 64.0250511 81 65 C84.86526182 69.66788449 88.01623174 74.55678642 90.82421875 79.921875 C91.9731935 82.07134667 91.9731935 82.07134667 93.6328125 84.09375 C95.37169217 86.51824508 95.24305553 88.08333366 95 91 C95.598125 91.20625 96.19625 91.4125 96.8125 91.625 C99.80115041 93.50358026 100.5278368 95.85492408 102 99 C102.66 99.33 103.32 99.66 104 100 C104.66454044 102.02859714 105.32269617 104.05941207 105.95703125 106.09765625 C107.1947046 109.54181843 108.771222 112.779447 110.375 116.0625 C114.10589794 123.81528242 116.6590284 131.73655299 119 140 C119.19223145 140.67643555 119.38446289 141.35287109 119.58251953 142.04980469 C119.77313965 142.72172852 119.96375977 143.39365234 120.16015625 144.0859375 C120.34425049 144.73425537 120.52834473 145.38257324 120.71801758 146.05053711 C121.22037651 147.83242431 121.71208797 149.61730338 122.203125 151.40234375 C122.74890864 153.90512026 122.74890864 153.90512026 124 155 C124.41722458 157.08028365 124.78060524 159.17141298 125.12109375 161.265625 C125.33443359 162.54824219 125.54777344 163.83085937 125.76757812 165.15234375 C126.10282605 167.19713569 126.43623691 169.2422086 126.76782227 171.28759766 C127.0890987 173.26023019 127.417522 175.23169449 127.74609375 177.203125 C127.93872803 178.38551758 128.1313623 179.56791016 128.32983398 180.78613281 C128.94538758 183.7380991 129.8423786 186.22933351 131 189 C133.33259858 203.37340674 129.78709628 211.50775707 122.14453125 223.57421875 C119.96998393 227.01223432 117.94053265 230.5224603 115.9375 234.0625 C113.50774403 238.35058131 111.05845454 242.62497603 108.5625 246.875 C105.00457736 252.9544779 101.55558202 259.09292408 98.11328125 265.23828125 C94.89102752 270.97967113 91.61808716 276.66667193 88.125 282.25 C85.12925667 287.07958945 82.31579855 291.97665201 79.62890625 296.984375 C74.32956656 306.79514295 68.80656282 316.4807561 63 326 C62.50371094 326.8559375 62.00742187 327.711875 61.49609375 328.59375 C59.67471035 331.52318126 57.56201011 333.70076015 55 336 C54.34 336 53.68 336 53 336 C52.9175 336.94875 52.835 337.8975 52.75 338.875 C52 342 52 342 49.9375 343.375 C49.298125 343.58125 48.65875 343.7875 48 344 C47.9175 343.38125 47.835 342.7625 47.75 342.125 C47.20721701 339.84645565 47.20721701 339.84645565 45.125 338.9375 C44.073125 338.4734375 44.073125 338.4734375 43 338 C41.25 336.5625 41.25 336.5625 40 335 C40 334.01 40 333.02 40 332 C39.195625 331.731875 38.39125 331.46375 37.5625 331.1875 C36.716875 330.795625 35.87125 330.40375 35 330 C34.67 329.01 34.34 328.02 34 327 C33.01 326.67 32.02 326.34 31 326 C30.67 325.01 30.34 324.02 30 323 C29.39027344 322.69835937 28.78054688 322.39671875 28.15234375 322.0859375 C25.43721682 320.71605495 24.32990323 319.08222111 22.5625 316.625 C19.98902467 313.16966567 17.44840398 310.61242726 14 308 C14 307.34 14 306.68 14 306 C13.34 306 12.68 306 12 306 C12 305.01 12 304.02 12 303 C11.1646875 302.6596875 11.1646875 302.6596875 10.3125 302.3125 C5.17408083 299.39609993 1.72942979 294.47531575 -2 290 C-2.845625 289.154375 -3.69125 288.30875 -4.5625 287.4375 C-6.92105283 285.07894717 -8.91863733 282.60170334 -11 280 C-13.22737122 277.71830265 -15.47892287 275.48514077 -17.8125 273.3125 C-19 272 -19 272 -19 270 C-19.66 270 -20.32 270 -21 270 C-21 269.34 -21 268.68 -21 268 C-21.59941406 267.73832031 -22.19882812 267.47664063 -22.81640625 267.20703125 C-25.13061764 265.92779812 -26.29659445 264.73749558 -27.9375 262.6875 C-31.60172816 258.25570285 -35.53736742 254.38628318 -39.9375 250.6875 C-43.36282617 247.73130856 -45.94332475 244.60937569 -48.546875 240.92578125 C-50.02403493 238.96814726 -51.60788564 237.32192523 -53.375 235.625 C-54.24125 234.75875 -55.1075 233.8925 -56 233 C-56 232.34 -56 231.68 -56 231 C-56.7425 230.814375 -57.485 230.62875 -58.25 230.4375 C-61.65083431 228.65979116 -62.33065476 226.93680636 -64.01953125 223.62109375 C-65.29747958 221.50815128 -66.67356203 220.74778363 -69 220 C-69 219.34 -69 218.68 -69 218 C-69.66 218 -70.32 218 -71 218 C-74 214.53846154 -74 214.53846154 -74 212 C-74.7425 211.814375 -75.485 211.62875 -76.25 211.4375 C-79.48883706 209.74447154 -80.21782794 207.98306778 -81.83203125 204.80078125 C-83.53554642 202.17429131 -85.80039757 200.86736042 -88.39453125 199.19140625 C-90.63917668 197.5256718 -91.68635031 195.43025192 -93 193 C-93.99 192.34 -94.98 191.68 -96 191 C-96 190.34 -96 189.68 -96 189 C-96.99 188.67 -97.98 188.34 -99 188 C-99.66666667 186.66666667 -100.33333333 185.33333333 -101 184 C-101.99 183.67 -102.98 183.34 -104 183 C-103.47731534 180.23723823 -102.89130413 177.6739124 -102 175 C-101.34 174.67 -100.68 174.34 -100 174 C-99.32447568 172.10853189 -98.65087467 170.21634907 -97.98828125 168.3203125 C-96.54973622 164.94285895 -94.45801358 162.12025146 -92.36328125 159.12109375 C-90.70330495 156.5383799 -89.76073526 153.96686753 -89 151 C-88.34 151 -87.68 151 -87 151 C-86.87625 150.360625 -86.7525 149.72125 -86.625 149.0625 C-86.41875 148.381875 -86.2125 147.70125 -86 147 C-85.34 146.67 -84.68 146.34 -84 146 C-83.09274566 143.88672575 -83.09274566 143.88672575 -82.375 141.4375 C-81.98441406 140.19806641 -81.98441406 140.19806641 -81.5859375 138.93359375 C-81.29589844 137.97646484 -81.29589844 137.97646484 -81 137 C-80.01 137 -79.02 137 -78 137 C-77.7525 135.948125 -77.505 134.89625 -77.25 133.8125 C-76.21322247 130.14333697 -74.43085762 127.94649409 -72 125 C-70.85927607 122.7041126 -69.93751206 120.39065576 -69 118 C-68.34 118 -67.68 118 -67 118 C-66.67 116.35 -66.34 114.7 -66 113 C-65.34 113 -64.68 113 -64 113 C-63.87625 112.46375 -63.7525 111.9275 -63.625 111.375 C-62.87793984 108.5361714 -61.94696636 105.77776798 -61 103 C-60.34 103 -59.68 103 -59 103 C-58.731875 102.278125 -58.46375 101.55625 -58.1875 100.8125 C-57 98 -57 98 -55.4375 95.4375 C-54.12887975 93.21853522 -53.46467564 91.50924843 -53 89 C-52.34 89 -51.68 89 -51 89 C-50.62875 87.9790625 -50.62875 87.9790625 -50.25 86.9375 C-49.25913014 84.60895583 -48.21945876 82.60051406 -46.9375 80.4375 C-45.4391943 77.77921569 -44.47198038 75.9498774 -44 73 C-43.34 73 -42.68 73 -42 73 C-41.731875 72.278125 -41.46375 71.55625 -41.1875 70.8125 C-40.00098638 68.00233617 -38.72514361 65.51583443 -37 63 C-36.34 63 -35.68 63 -35 63 C-34.9175 61.948125 -34.835 60.89625 -34.75 59.8125 C-33.92399275 55.61362979 -32.75914816 54.16490525 -30 51 C-29.566875 50.13375 -29.13375 49.2675 -28.6875 48.375 C-26.64087554 44.28175108 -24.20231847 40.52332132 -21.71875 36.68359375 C-18.8281975 32.17039018 -16.55903224 28.15679893 -15 23 C-14.34 23 -13.68 23 -13 23 C-12.5359375 21.824375 -12.5359375 21.824375 -12.0625 20.625 C-11 18 -11 18 -10 16 C-9.34 16 -8.68 16 -8 16 C-7.896875 15.484375 -7.79375 14.96875 -7.6875 14.4375 C-6.10918616 8.84166003 -3.83816929 4.36757195 0 0 Z " fill="#F25E32" transform="translate(290,81)"/>
<path d="M0 0 C0 0.33 0 0.66 0 1 C-5.99581106 0.88132774 -11.99147067 0.75705217 -17.98706055 0.62768555 C-20.02478923 0.58449482 -22.06255041 0.54280922 -24.1003418 0.50268555 C-27.03704604 0.44459689 -29.97358909 0.38101552 -32.91015625 0.31640625 C-33.81459976 0.29969376 -34.71904327 0.28298126 -35.65089417 0.26576233 C-40.52217655 0.15283472 -45.17201509 -0.30257018 -50 -1 C-52.7423786 -1.08996971 -55.45787931 -1.14055286 -58.19921875 -1.1328125 C-58.956689 -1.13376923 -59.71415924 -1.13472595 -60.49458313 -1.13571167 C-62.08371057 -1.13638786 -63.67284086 -1.13457298 -65.26196289 -1.13037109 C-67.6909808 -1.12499229 -70.11981572 -1.13034661 -72.54882812 -1.13671875 C-74.09895874 -1.13605831 -75.64908924 -1.13477784 -77.19921875 -1.1328125 C-77.9221965 -1.13483673 -78.64517426 -1.13686096 -79.39006042 -1.13894653 C-82.77956123 -1.12318411 -85.73553803 -0.84866247 -89 0 C-91.37939043 0.13741214 -93.76184856 0.22464491 -96.14453125 0.28125 C-97.17654915 0.30886414 -97.17654915 0.30886414 -98.22941589 0.33703613 C-100.42369344 0.39556967 -102.61804837 0.44843388 -104.8125 0.5 C-107.69415396 0.5682086 -110.57559443 0.64197049 -113.45703125 0.71875 C-114.73553955 0.74904297 -116.01404785 0.77933594 -117.33129883 0.81054688 C-120.94057929 0.99693149 -124.42803577 1.46672778 -128 2 C-130.73302354 1.86400685 -133.28867319 1.42810423 -136 1 C-136 0.67 -136 0.34 -136 0 C-92.64469713 -7.30707352 -43.24813206 -8.8744457 0 0 Z " fill="#F1BE93" transform="translate(197,53)"/>
<path d="M0 0 C0.33 0.66 0.66 1.32 1 2 C0.05598958 3.3671875 -0.88802083 4.734375 -1.83203125 6.1015625 C-3.39192457 8.63704128 -4.66869088 11.33738177 -6 14 C-89.16 14 -172.32 14 -258 14 C-257.34 12.35 -256.68 10.7 -256 9 C-255.67 9.66 -255.34 10.32 -255 11 C-255.33 11.66 -255.66 12.32 -256 13 C-174.16 12.67 -92.32 12.34 -8 12 C-7.01 9.69 -6.02 7.38 -5 5 C-4.34 5 -3.68 5 -3 5 C-2.67 4.01 -2.34 3.02 -2 2 C-1.34 1.34 -0.68 0.68 0 0 Z " fill="#FE994F" transform="translate(348,412)"/>
<path d="M0 0 C1.81484971 0.00084816 3.62970044 0.00036746 5.44454956 -0.00132751 C10.32795458 -0.00218154 15.21113454 0.01534723 20.09448767 0.03639436 C25.21403174 0.05526096 30.33358205 0.05691942 35.45315552 0.06047058 C45.12838082 0.0697619 54.80350336 0.0943359 64.47868359 0.12451905 C75.50175861 0.15815419 86.52483877 0.1745719 97.54795241 0.18960536 C120.2053649 0.22088831 142.86268643 0.27359163 165.52001953 0.34057617 C164.90153451 5.09314532 164.25085456 7.21148873 160.52001953 10.34057617 C161.18001953 7.37057617 161.84001953 4.40057617 162.52001953 1.34057617 C139.97910397 1.40125971 117.43830221 1.47886416 94.89751434 1.57629108 C84.43005891 1.62114494 73.9626367 1.66058331 63.49511719 1.68701172 C54.36541553 1.71007643 45.23581997 1.74356818 36.1062026 1.78927773 C31.2777817 1.81309626 26.44946513 1.83189919 21.62098694 1.83819008 C17.06386771 1.84429283 12.50701505 1.86447686 7.94999504 1.89485168 C6.28935036 1.9035496 4.62867072 1.90737191 2.96800423 1.90558434 C-9.53655263 1.89638504 -21.11153202 3.31866087 -33.22998047 6.59057617 C-36.40252324 7.32270143 -37.50371176 7.24639708 -40.47998047 6.34057617 C-27.13781053 0.7368648 -14.23576372 -0.09424179 0 0 Z " fill="#FF9C50" transform="translate(420.47998046875,-0.340576171875)"/>
<path d="M0 0 C-6.38026811 4.25351208 -13.6601588 5.48372349 -21.1640625 6.3515625 C-22.00037201 6.45592621 -22.83668152 6.56028992 -23.69833374 6.66781616 C-26.33957653 6.99554721 -28.9821402 7.31060416 -31.625 7.625 C-33.40375191 7.84288576 -35.18239901 8.06162893 -36.9609375 8.28125 C-39.47081362 8.59098563 -41.98076213 8.89954338 -44.49160767 9.20132446 C-49.00403664 9.74400159 -53.50318869 10.33991076 -58 11 C-55.69 13.64 -53.38 16.28 -51 19 C-54 19 -54 19 -56.6875 16.75 C-59 14 -59 14 -59 10 C-19.29392168 -0.41943308 -19.29392168 -0.41943308 0 0 Z " fill="#F5CBA7" transform="translate(59,54)"/>
<path d="M0 0 C34.32 0 68.64 0 104 0 C102.875 6.75 102.875 6.75 99 10 C99.66 7.03 100.32 4.06 101 1 C67.67 1 34.34 1 0 1 C0 0.67 0 0.34 0 0 Z " fill="#FF9B4F" transform="translate(482,0)"/>
<path d="M0 0 C0.33 0.66 0.66 1.32 1 2 C0.1862793 3.83007812 0.1862793 3.83007812 -1.11328125 6.03125 C-1.57943848 6.835625 -2.0455957 7.64 -2.52587891 8.46875 C-3.01233887 9.3040625 -3.49879883 10.139375 -4 11 C-4.87385146 12.59081641 -5.74244184 14.18453532 -6.60546875 15.78125 C-7.46614583 17.35416667 -8.32682292 18.92708333 -9.1875 20.5 C-9.84395508 21.71429688 -9.84395508 21.71429688 -10.51367188 22.953125 C-10.93583984 23.72140625 -11.35800781 24.4896875 -11.79296875 25.28125 C-12.1696167 25.97283203 -12.54626465 26.66441406 -12.93432617 27.37695312 C-14 29 -14 29 -16 30 C-15.88610125 28.20759337 -15.75852313 26.41605165 -15.625 24.625 C-15.55539062 23.62726563 -15.48578125 22.62953125 -15.4140625 21.6015625 C-15 19 -15 19 -13 17 C-12.34 17.33 -11.68 17.66 -11 18 C-11.33 16.35 -11.66 14.7 -12 13 C-11.0409375 12.7215625 -11.0409375 12.7215625 -10.0625 12.4375 C-9.381875 11.963125 -8.70125 11.48875 -8 11 C-7.59270772 8.67843403 -7.25561323 6.3431213 -7 4 C-5 3 -5 3 -2 3 C-1.34 2.01 -0.68 1.02 0 0 Z " fill="#F2AE7B" transform="translate(437,257)"/>
<path d="M0 0 C1.32 0.66 2.64 1.32 4 2 C3.56880859 2.85851562 3.56880859 2.85851562 3.12890625 3.734375 C2.41991296 5.15726811 1.71825208 6.58386316 1.02734375 8.015625 C-1.70894109 13.6254993 -4.65714353 19.10749421 -7.6875 24.5625 C-8.0801001 25.27760742 -8.4727002 25.99271484 -8.87719727 26.72949219 C-11.76506149 31.88253075 -11.76506149 31.88253075 -14 33 C-13.71125 32.195625 -13.4225 31.39125 -13.125 30.5625 C-11.81642821 26.41868933 -10.88782235 22.25021337 -10 18 C-9.01 18 -8.02 18 -7 18 C-6.690625 16.88625 -6.38125 15.7725 -6.0625 14.625 C-5 11 -5 11 -4 9 C-3.34 9 -2.68 9 -2 9 C-2 8.34 -2 7.68 -2 7 C-1.34 7 -0.68 7 0 7 C-0.185625 6.030625 -0.37125 5.06125 -0.5625 4.0625 C-0.706875 3.051875 -0.85125 2.04125 -1 1 C-0.67 0.67 -0.34 0.34 0 0 Z " fill="#E27452" transform="translate(371,365)"/>
<path d="M0 0 C0.66 0.33 1.32 0.66 2 1 C1.50628906 1.42410156 1.01257813 1.84820312 0.50390625 2.28515625 C-4.04173036 6.44665456 -5.38454293 8.72233792 -6 15 C-7.875 16.5 -7.875 16.5 -10 17 C-10.99 16.67 -11.98 16.34 -13 16 C-14.01111093 19.04913228 -14.01111093 19.04913228 -13 22 C-13.33 22.66 -13.66 23.32 -14 24 C-15.98 23.67 -17.96 23.34 -20 23 C-18.42491141 19.33620697 -16.15806427 16.70148695 -13.5 13.75 C-12.7059375 12.85796875 -11.911875 11.9659375 -11.09375 11.046875 C-9 9 -9 9 -7 9 C-6.773125 8.443125 -6.54625 7.88625 -6.3125 7.3125 C-4.64103234 4.36753316 -2.44723648 2.31843456 0 0 Z " fill="#F6C298" transform="translate(322,37)"/>
<path d="M0 0 C1.50539661 0.94983358 3.00420347 1.91011891 4.5 2.875 C5.75296875 3.67550781 5.75296875 3.67550781 7.03125 4.4921875 C7.6809375 4.98976563 8.330625 5.48734375 9 6 C9 6.66 9 7.32 9 8 C9.99 8.33 10.98 8.66 12 9 C11.67 9.99 11.34 10.98 11 12 C15.39253773 13.56272189 15.39253773 13.56272189 20 14 C20.69937202 15.4317616 21.38412718 16.87067032 22.0625 18.3125 C22.63677734 19.51326172 22.63677734 19.51326172 23.22265625 20.73828125 C24 23 24 23 23 26 C22.56429687 25.48050781 22.12859375 24.96101563 21.6796875 24.42578125 C18.8535088 21.11633823 16.14408987 17.97535442 12.6875 15.3125 C9.85667745 12.87667595 9.28254209 11.38957554 8 8 C6.11683841 6.89163577 6.11683841 6.89163577 4 6 C1.75 4 1.75 4 0 2 C0 1.34 0 0.68 0 0 Z " fill="#F6C194" transform="translate(18,85)"/>
<path d="M0 0 C0.33 0.99 0.66 1.98 1 3 C0.04060332 4.69036558 -0.96642853 6.35394174 -2 8 C-2.350625 9.051875 -2.70125 10.10375 -3.0625 11.1875 C-4 14 -4 14 -6 16 C-6.64767793 18.57061311 -6.64767793 18.57061311 -7 21 C-7.66 21 -8.32 21 -9 21 C-9.144375 21.61875 -9.28875 22.2375 -9.4375 22.875 C-10 25 -10 25 -11 27 C-11.99 27 -12.98 27 -14 27 C-14.33 27.99 -14.66 28.98 -15 30 C-15.33 29.34 -15.66 28.68 -16 28 C-14.9609375 25.6796875 -14.9609375 25.6796875 -13.375 22.875 C-12.81683594 21.885 -12.25867188 20.895 -11.68359375 19.875 C-9.92582815 16.87333995 -8.10714683 13.92295381 -6.234375 10.9921875 C-4.0143016 7.40915765 -2.01370994 3.70179869 0 0 Z " fill="#F6CEAB" transform="translate(162,299)"/>
<path d="M0 0 C0.33 0.66 0.66 1.32 1 2 C0.24316406 3.84765625 0.24316406 3.84765625 -0.984375 6.0625 C-1.42523438 6.85914063 -1.86609375 7.65578125 -2.3203125 8.4765625 C-2.79210937 9.30929688 -3.26390625 10.14203125 -3.75 11 C-4.43449219 12.24910156 -4.43449219 12.24910156 -5.1328125 13.5234375 C-8.61523774 19.74349182 -8.61523774 19.74349182 -12 22 C-12 20.02 -12 18.04 -12 16 C-11.01 16 -10.02 16 -9 16 C-9 14.02 -9 12.04 -9 10 C-8.34 10 -7.68 10 -7 10 C-6.71125 9.071875 -6.4225 8.14375 -6.125 7.1875 C-5 4 -5 4 -3 1 C-2.01 0.67 -1.02 0.34 0 0 Z " fill="#F0B789" transform="translate(496,155)"/>
<path d="M0 0 C3.26460973 1.80412643 4.88929795 2.83394693 7 6 C8.32303717 6.3721042 9.65737935 6.70630173 11 7 C13 9 13 9 13 12 C13.99 12.33 14.98 12.66 16 13 C16.6875 15.0625 16.6875 15.0625 17 17 C17.66 17 18.32 17 19 17 C18.6875 18.875 18.6875 18.875 18 21 C17.01 21.66 16.02 22.32 15 23 C15.33 21.35 15.66 19.7 16 18 C15.154375 17.34 14.30875 16.68 13.4375 16 C10.12610645 13.25358355 7.38752097 10.14525466 4.61328125 6.8671875 C3.04233838 4.98629915 3.04233838 4.98629915 1.29296875 3.3828125 C0 2 0 2 0 0 Z " fill="#F4C39B" transform="translate(167,243)"/>
<path d="M0 0 C0.33 0.99 0.66 1.98 1 3 C-0.4765625 5.8203125 -0.4765625 5.8203125 -2.625 9.125 C-3.3687402 10.28676787 -4.11092255 11.44953448 -4.8515625 12.61328125 C-5.21797852 13.1851416 -5.58439453 13.75700195 -5.96191406 14.34619141 C-8.13376695 17.80624114 -10.06670717 21.40295997 -12 25 C-12.33 24.01 -12.66 23.02 -13 22 C-12.02546131 20.24583035 -11.04429756 18.4939281 -9.9921875 16.78515625 C-8.7653912 14.57788889 -8.30252502 12.49583139 -8 10 C-7.34 10 -6.68 10 -6 10 C-6 7.69 -6 5.38 -6 3 C-4.02 2.01 -2.04 1.02 0 0 Z " fill="#F5C49E" transform="translate(511,129)"/>
<path d="M0 0 C1.13665504 3.40996511 0.91583208 3.86305848 -0.43359375 7.01171875 C-0.75263672 7.76904297 -1.07167969 8.52636719 -1.40039062 9.30664062 C-1.74263672 10.09232422 -2.08488281 10.87800781 -2.4375 11.6875 C-2.77587891 12.48478516 -3.11425781 13.28207031 -3.46289062 14.10351562 C-4.3000701 16.07265607 -5.1489353 18.03682084 -6 20 C-7.32 20 -8.64 20 -10 20 C-10.99 22.475 -10.99 22.475 -12 25 C-12.33 24.01 -12.66 23.02 -13 22 C-11.5234375 19.1796875 -11.5234375 19.1796875 -9.375 15.875 C-8.6312598 14.71323213 -7.88907745 13.55046552 -7.1484375 12.38671875 C-6.78202148 11.8148584 -6.41560547 11.24299805 -6.03808594 10.65380859 C-3.86623305 7.19375886 -1.93329283 3.59704003 0 0 Z " fill="#F5C59B" transform="translate(106,396)"/>
<path d="M0 0 C4.47309039 0.50830573 8.80238996 1.34983963 13.1875 2.375 C14.19167969 2.60960938 15.19585937 2.84421875 16.23046875 3.0859375 C19 4 19 4 23 7 C19.7 7 16.4 7 13 7 C13 6.34 13 5.68 13 5 C10.02148438 5.09765625 10.02148438 5.09765625 7.04296875 5.1953125 C5 5 5 5 2 3 C2 2.34 2 1.68 2 1 C1.34 0.67 0.68 0.34 0 0 Z M10 7 C10.99 7 11.98 7 13 7 C13 7.66 13 8.32 13 9 C12.01 9 11.02 9 10 9 C10 8.34 10 7.68 10 7 Z " fill="#ED9A5F" transform="translate(238,62)"/>
<path d="M0 0 C4.62784837 0.55093433 7.86445451 1.91966485 12 4 C15.40685141 5.32118403 18.83453592 6.57049269 22.26953125 7.81640625 C25 9 25 9 26 11 C24.0830014 10.68954268 22.16641277 10.37655329 20.25 10.0625 C19.18265625 9.88847656 18.1153125 9.71445313 17.015625 9.53515625 C14.63652407 9.11295829 12.33084789 8.62797116 10 8 C10.33 7.01 10.66 6.02 11 5 C9.9275 5.103125 8.855 5.20625 7.75 5.3125 C4 5 4 5 1.5625 2.5 C1.046875 1.675 0.53125 0.85 0 0 Z " fill="#F6C49B" transform="translate(262,69)"/>
<path d="M0 0 C1.3921875 0.2784375 1.3921875 0.2784375 2.8125 0.5625 C6.01343771 1.24123881 6.01343771 1.24123881 9 0 C9 2.64 9 5.28 9 8 C9.66 8 10.32 8 11 8 C11.33 8.99 11.66 9.98 12 11 C13.29355827 12.37195574 14.62298702 13.71182656 16 15 C15.67 15.66 15.34 16.32 15 17 C13.29115995 15.37660195 11.62553283 13.70680947 10 12 C10 11.34 10 10.68 10 10 C9.34 10 8.68 10 8 10 C8 9.34 8 8.68 8 8 C7.4225 7.79375 6.845 7.5875 6.25 7.375 C3.18589456 5.50249112 1.84460032 3.03041481 0 0 Z " fill="#F3BD91" transform="translate(44,113)"/>
<path d="M0 0 C0.33 0.66 0.66 1.32 1 2 C0.67 2.99 0.34 3.98 0 5 C0.66 5 1.32 5 2 5 C2 6.98 2 8.96 2 11 C0.68 10.67 -0.64 10.34 -2 10 C-2.2475 10.639375 -2.495 11.27875 -2.75 11.9375 C-4 14 -4 14 -6.078125 14.62890625 C-7.02945313 14.81259766 -7.02945313 14.81259766 -8 15 C-6.85657478 12.68628057 -5.71038936 10.37400323 -4.5625 8.0625 C-4.23701172 7.40314453 -3.91152344 6.74378906 -3.57617188 6.06445312 C-1.11328125 1.11328125 -1.11328125 1.11328125 0 0 Z " fill="#EE873C" transform="translate(116,379)"/>
<path d="M0 0 C-3 2 -3 2 -6 2 C-6.33 2.99 -6.66 3.98 -7 5 C-8.98 5 -10.96 5 -13 5 C-13.33 5.66 -13.66 6.32 -14 7 C-16.64 7 -19.28 7 -22 7 C-18.62403049 4.13042592 -15.15055064 2.74490171 -11 1.25 C-9.783125 0.80140625 -8.56625 0.3528125 -7.3125 -0.109375 C-4.21423404 -0.94239934 -2.90360871 -1.19047957 0 0 Z " fill="#F3C097" transform="translate(380,8)"/>
<path d="M0 0 C0.98484375 0.00902344 1.9696875 0.01804688 2.984375 0.02734375 C4.10585938 0.04474609 4.10585938 0.04474609 5.25 0.0625 C5.25 0.3925 5.25 0.7225 5.25 1.0625 C-2.64740344 3.03029156 -10.48864166 4.56679334 -18.55859375 5.6328125 C-21.63531084 6.04705838 -24.69062926 6.53645435 -27.75 7.0625 C-24.93178145 4.24428145 -21.64181758 3.87670179 -17.875 3 C-17.15441406 2.82662109 -16.43382812 2.65324219 -15.69140625 2.47460938 C-13.71212769 1.99892641 -11.73112476 1.53043438 -9.75 1.0625 C-9.0688916 0.88090332 -8.3877832 0.69930664 -7.68603516 0.51220703 C-5.09511443 -0.08961844 -2.65552108 -0.03161335 0 0 Z " fill="#FCE4CE" transform="translate(407.75,-0.0625)"/>
<path d="M0 0 C0.79019531 0.00902344 1.58039063 0.01804688 2.39453125 0.02734375 C3.28205078 0.04474609 3.28205078 0.04474609 4.1875 0.0625 C4.1875 0.3925 4.1875 0.7225 4.1875 1.0625 C3.07375 1.371875 1.96 1.68125 0.8125 2 C-2.6070155 2.88576483 -2.6070155 2.88576483 -4.8125 4.0625 C-8.41374845 4.38025722 -12.01581695 4.57416573 -15.625 4.78125 C-18.70672513 4.85675082 -18.70672513 4.85675082 -20.8125 6.0625 C-23.4848621 6.19665472 -26.13500488 6.10568541 -28.8125 6.0625 C-25.89171605 3.14171605 -22.43340341 3.1210637 -18.5 2.5 C-16.98300672 2.2490978 -15.46607793 1.99780539 -13.94921875 1.74609375 C-13.22935791 1.62983643 -12.50949707 1.5135791 -11.76782227 1.39379883 C-10.19483387 1.12728051 -8.6305005 0.809936 -7.0703125 0.4765625 C-4.66342991 0.03516189 -2.44426291 -0.03648154 0 0 Z " fill="#E68946" transform="translate(412.8125,0.9375)"/>
<path d="M0 0 C1.32 0.33 2.64 0.66 4 1 C1.833052 4.852352 -0.37687132 8.6692945 -2.6875 12.4375 C-3.10386719 13.11683594 -3.52023437 13.79617187 -3.94921875 14.49609375 C-4.29597656 14.99238281 -4.64273437 15.48867187 -5 16 C-5.33 16 -5.66 16 -6 16 C-5.67 12.7 -5.34 9.4 -5 6 C-4.01 5.67 -3.02 5.34 -2 5 C-0.78130071 2.49552484 -0.78130071 2.49552484 0 0 Z " fill="#F2B788" transform="translate(447,236)"/>
<path d="M0 0 C2.48620049 1.06551449 4.03717151 2.03837059 5.9375 4 C8.18008724 6.17463005 10.06219679 7.02073226 13 8 C13 8.99 13 9.98 13 11 C13.66 11 14.32 11 15 11 C15.66 13.31 16.32 15.62 17 18 C10.87670945 13.04925445 3.56677924 7.13355849 0 0 Z " fill="#F6CCA6" transform="translate(90,162)"/>
<path d="M0 0 C0.33 0.99 0.66 1.98 1 3 C2.65 3.33 4.3 3.66 6 4 C6 6.64 6 9.28 6 12 C1.86062408 8.69984002 -1.58662205 5.82675589 -4 1 C-2.68 0.67 -1.36 0.34 0 0 Z " fill="#F2AE78" transform="translate(66,131)"/>
<path d="M0 0 C0.33 0.66 0.66 1.32 1 2 C-0.22103436 4.29460081 -1.47962592 6.44093623 -2.875 8.625 C-3.25269531 9.23601562 -3.63039063 9.84703125 -4.01953125 10.4765625 C-4.97899971 12.00624886 -5.98579322 13.50604395 -7 15 C-7.33 15 -7.66 15 -8 15 C-8 12.36 -8 9.72 -8 7 C-7.01 7 -6.02 7 -5 7 C-5 5.35 -5 3.7 -5 2 C-3.35 1.34 -1.7 0.68 0 0 Z " fill="#EEA387" transform="translate(418,291)"/>
<path d="M0 0 C0.33 0.66 0.66 1.32 1 2 C-1.20634136 7.12798061 -4.3421278 11.80022081 -8 16 C-8.125 9.25 -8.125 9.25 -7 7 C-6.64830932 5.67139075 -6.31229724 4.33841672 -6 3 C-4.68 3 -3.36 3 -2 3 C-1.34 2.01 -0.68 1.02 0 0 Z " fill="#F3B584" transform="translate(437,257)"/>
<path d="M0 0 C0.33 0.66 0.66 1.32 1 2 C-0.07421875 4.4609375 -0.07421875 4.4609375 -1.6875 7.375 C-2.20699219 8.33148438 -2.72648438 9.28796875 -3.26171875 10.2734375 C-4.94360079 12.91153563 -6.70453034 14.8895682 -9 17 C-9 15.35 -9 13.7 -9 12 C-8.01 12 -7.02 12 -6 12 C-5.67 9.03 -5.34 6.06 -5 3 C-3.68 3 -2.36 3 -1 3 C-0.67 2.01 -0.34 1.02 0 0 Z " fill="#F4C096" transform="translate(530,96)"/>
<path d="M0 0 C1.32 0.33 2.64 0.66 4 1 C3.52467862 6.07009471 0.95637706 9.97493258 -2 14 C-2.33 14 -2.66 14 -3 14 C-3 11.03 -3 8.06 -3 5 C-2.01 5 -1.02 5 0 5 C0 3.35 0 1.7 0 0 Z " fill="#ED9C7F" transform="translate(378,353)"/>
<path d="M0 0 C0.99 0.66 1.98 1.32 3 2 C1.23570801 6.97209562 -1.3939166 11.43438061 -4 16 C-4.33 16 -4.66 16 -5 16 C-5.25 8.375 -5.25 8.375 -3 5 C-2.01 5 -1.02 5 0 5 C0 3.35 0 1.7 0 0 Z " fill="#F1A286" transform="translate(354,396)"/>
<path d="M0 0 C0.66 0.33 1.32 0.66 2 1 C1.50628906 1.42410156 1.01257813 1.84820312 0.50390625 2.28515625 C-4.04173036 6.44665456 -5.38454293 8.72233792 -6 15 C-8.0625 16.4375 -8.0625 16.4375 -10 17 C-10.99 16.34 -11.98 15.68 -13 15 C-12.01 14.67 -11.02 14.34 -10 14 C-8.93283296 12.20067421 -8.93283296 12.20067421 -8 10 C-5.84805802 6.00353633 -3.29525742 3.11713539 0 0 Z " fill="#F1AF7B" transform="translate(322,37)"/>
<path d="M0 0 C-1.32338632 0.68620031 -2.65949948 1.34786461 -4 2 C-4.76699219 2.37898438 -5.53398438 2.75796875 -6.32421875 3.1484375 C-9.69903533 4.22246672 -12.30046418 3.97975109 -15.8125 3.625 C-16.97394531 3.51414063 -18.13539062 3.40328125 -19.33203125 3.2890625 C-20.21246094 3.19367187 -21.09289063 3.09828125 -22 3 C-22 2.67 -22 2.34 -22 2 C-14.58851545 0.71702277 -7.52719602 -0.25515919 0 0 Z " fill="#F3BA8D" transform="translate(83,51)"/>
<path d="M0 0 C0.33 0.99 0.66 1.98 1 3 C-0.3984375 5.69921875 -0.3984375 5.69921875 -2.375 8.6875 C-3.02210938 9.68136719 -3.66921875 10.67523438 -4.3359375 11.69921875 C-5.15964844 12.83810547 -5.15964844 12.83810547 -6 14 C-6.33 14 -6.66 14 -7 14 C-6.67 11.03 -6.34 8.06 -6 5 C-5.34 5 -4.68 5 -4 5 C-4 4.34 -4 3.68 -4 3 C-3.01 2.67 -2.02 2.34 -1 2 C-0.67 1.34 -0.34 0.68 0 0 Z " fill="#F0AA92" transform="translate(399,323)"/>
<path d="M0 0 C1.5625 1.1875 1.5625 1.1875 3 3 C2.625 5.4375 2.625 5.4375 2 8 C2.36856864 10.23167185 2.36856864 10.23167185 3 12 C1 10.625 1 10.625 -1 9 C-1 8.34 -1 7.68 -1 7 C-1.66 7 -2.32 7 -3 7 C-4.625 4.5 -4.625 4.5 -6 2 C-3.03 2.495 -3.03 2.495 0 3 C0 2.01 0 1.02 0 0 Z " fill="#F3B17F" transform="translate(85,148)"/>
<path d="M0 0 C0.33 0.66 0.66 1.32 1 2 C0.67 2.99 0.34 3.98 0 5 C-0.03954234 7.33299825 -0.04401732 9.66708189 0 12 C-0.99 11.67 -1.98 11.34 -3 11 C-3.33 11.66 -3.66 12.32 -4 13 C-4.66 13 -5.32 13 -6 13 C-4.75696561 7.82069003 -3.14512215 4.29833361 0 0 Z " fill="#F3BA8B" transform="translate(172,282)"/>
<path d="M0 0 C1.31223496 3.93670488 0.24296256 6.12488144 -1 10 C-1.66 10 -2.32 10 -3 10 C-3.66 11.32 -4.32 12.64 -5 14 C-5.66 14 -6.32 14 -7 14 C-5.23570801 9.02790438 -2.6060834 4.56561939 0 0 Z " fill="#F2C29A" transform="translate(180,268)"/>
<path d="M0 0 C-0.59924224 4.19469571 -1.57499941 8.00999834 -3 12 C-3.33 12 -3.66 12 -4 12 C-4 9.36 -4 6.72 -4 4 C-4.99 4.33 -5.98 4.66 -7 5 C-7 4.34 -7 3.68 -7 3 C-6.34 3 -5.68 3 -5 3 C-5 2.34 -5 1.68 -5 1 C-3 0 -3 0 0 0 Z " fill="#ED8D48" transform="translate(583,1)"/>
<path d="M0 0 C1.33332095 2.6666419 0.67102033 4.16680303 0 7 C-0.99 7 -1.98 7 -3 7 C-3.268125 7.86625 -3.53625 8.7325 -3.8125 9.625 C-4.97111987 12.91791964 -6.38209839 15.91127875 -8 19 C-8.66 19 -9.32 19 -10 19 C-8.46268901 14.89020378 -6.52691182 11.10603351 -4.4375 7.25 C-3.81746094 6.10015625 -3.19742188 4.9503125 -2.55859375 3.765625 C-1 1 -1 1 0 0 Z " fill="#F9D8BA" transform="translate(127,360)"/>
<path d="M0 0 C0.66 0 1.32 0 2 0 C1.66830805 6.30214697 -1.67323988 10.85216936 -5 16 C-5.58203125 14.1171875 -5.58203125 14.1171875 -6 12 C-5.04422943 10.63461347 -4.03647024 9.30518475 -3 8 C-2.28591666 6.01643517 -1.61382258 4.01684563 -1 2 C-0.67 1.34 -0.34 0.68 0 0 Z " fill="#EDAF7E" transform="translate(550,58)"/>
<path d="M0 0 C0.33 0.99 0.66 1.98 1 3 C0.01 3.66 -0.98 4.32 -2 5 C-1.125 1.125 -1.125 1.125 0 0 Z M-4 5 C-3.34 5 -2.68 5 -2 5 C-3.64178265 9.77609498 -6.26546702 13.79382904 -9 18 C-10.125 14.25 -10.125 14.25 -9 12 C-8.34 12 -7.68 12 -7 12 C-6.690625 11.21625 -6.38125 10.4325 -6.0625 9.625 C-5 7 -5 7 -4 5 Z " fill="#EE662B" transform="translate(284,92)"/>
<path d="M0 0 C-1.65 0.66 -3.3 1.32 -5 2 C-4.67 4.31 -4.34 6.62 -4 9 C-4.99 8.34 -5.98 7.68 -7 7 C-7 6.34 -7 5.68 -7 5 C-8.32 4.34 -9.64 3.68 -11 3 C-11 2.34 -11 1.68 -11 1 C-3.57142857 -1.42857143 -3.57142857 -1.42857143 0 0 Z " fill="#E28C4C" transform="translate(12,64)"/>
<path d="M0 0 C-0.556875 0.78375 -1.11375 1.5675 -1.6875 2.375 C-4.57316585 6.67764155 -6.75383481 11.34196891 -9 16 C-9.5859375 14.11328125 -9.5859375 14.11328125 -10 12 C-9.54625 11.401875 -9.0925 10.80375 -8.625 10.1875 C-6.69152539 7.96238892 -6.69152539 7.96238892 -6.5625 4.375 C-6 1 -6 1 -4.0625 -0.5 C-2 -1 -2 -1 0 0 Z " fill="#F7CDA7" transform="translate(563,43)"/>
<path d="M0 0 C0.33 0.99 0.66 1.98 1 3 C0.02938585 4.35487488 -0.97560342 5.68531774 -2 7 C-2.98689197 9.57032557 -2.98689197 9.57032557 -3.6875 12.25 C-3.93886719 13.14203125 -4.19023437 14.0340625 -4.44921875 14.953125 C-4.63097656 15.62859375 -4.81273437 16.3040625 -5 17 C-5.99 16.67 -6.98 16.34 -8 16 C-5.89286808 10.38098156 -3.32923681 4.99385521 0 0 Z " fill="#F6CFAE" transform="translate(143,332)"/>
<path d="M0 0 C1.98 0.66 3.96 1.32 6 2 C6 2.66 6 3.32 6 4 C6.66 4 7.32 4 8 4 C8 5.65 8 7.3 8 9 C3.7938588 7.49780671 2.22833454 4.74041869 0 1 C0 0.67 0 0.34 0 0 Z " fill="#F0BE96" transform="translate(157,232)"/>
<path d="M0 0 C4.29 0 8.58 0 13 0 C11.875 6.75 11.875 6.75 8 10 C8.66 7.03 9.32 4.06 10 1 C6.7 1 3.4 1 0 1 C0 0.67 0 0.34 0 0 Z " fill="#F9C496" transform="translate(573,0)"/>
<path d="M0 0 C1.32 0.66 2.64 1.32 4 2 C1.66666667 6.66666667 -0.66666667 11.33333333 -3 16 C-3.58984375 14.11328125 -3.58984375 14.11328125 -4 12 C-3.2884375 11.1028125 -3.2884375 11.1028125 -2.5625 10.1875 C-0.37713052 7.12798273 -0.86149147 4.67047609 -1 1 C-0.67 0.67 -0.34 0.34 0 0 Z " fill="#F4B8A0" transform="translate(371,365)"/>
<path d="M0 0 C0.33 0.66 0.66 1.32 1 2 C-0.14453125 4.3828125 -0.14453125 4.3828125 -1.8125 7.125 C-2.35519531 8.03507813 -2.89789063 8.94515625 -3.45703125 9.8828125 C-3.96621094 10.58148438 -4.47539062 11.28015625 -5 12 C-5.66 12 -6.32 12 -7 12 C-7.33 13.98 -7.66 15.96 -8 18 C-8.66 17.34 -9.32 16.68 -10 16 C-9.8125 13.9375 -9.8125 13.9375 -9 12 C-8.01 11.67 -7.02 11.34 -6 11 C-5.61907912 9.67947428 -5.29225744 8.34293502 -5 7 C-3.80859375 5.078125 -3.80859375 5.078125 -2.4375 3.25 C-1.98246094 2.63640625 -1.52742187 2.0228125 -1.05859375 1.390625 C-0.70925781 0.93171875 -0.35992187 0.4728125 0 0 Z " fill="#F97A36" transform="translate(236,172)"/>
<path d="M0 0 C0.99 0.33 1.98 0.66 3 1 C2.40895235 5.84659077 1.02055843 9.60748167 -1 14 C-1.33 14 -1.66 14 -2 14 C-2.21192221 8.80790596 -1.5912689 4.873261 0 0 Z " fill="#F18C42" transform="translate(499,141)"/>
<path d="M0 0 C1.00000429 4.00001715 0.80688405 6.05523353 0 10 C-0.99 10.33 -1.98 10.66 -3 11 C-3.99 10.34 -4.98 9.68 -6 9 C-4.02 6.03 -2.04 3.06 0 0 Z " fill="#F2BB8F" transform="translate(294,71)"/>
<path d="M0 0 C0.66 0.33 1.32 0.66 2 1 C2 1.66 2 2.32 2 3 C1.34 3 0.68 3 0 3 C-0.2165625 3.928125 -0.2165625 3.928125 -0.4375 4.875 C-1 7 -1 7 -2 9 C-2.99 9 -3.98 9 -5 9 C-5.33 9.99 -5.66 10.98 -6 12 C-6.33 11.34 -6.66 10.68 -7 10 C-5.06305458 6.19528578 -3.29078593 2.79716804 0 0 Z " fill="#F0B586" transform="translate(153,317)"/>
<path d="M0 0 C0.33 0.66 0.66 1.32 1 2 C0.401875 2.86625 -0.19625 3.7325 -0.8125 4.625 C-2.82044534 7.62619944 -4.44655098 10.73775706 -6 14 C-6.66 14 -7.32 14 -8 14 C-7.01 11.03 -6.02 8.06 -5 5 C-4.34 5 -3.68 5 -3 5 C-2.67 4.01 -2.34 3.02 -2 2 C-1.34 1.34 -0.68 0.68 0 0 Z " fill="#F7C8B5" transform="translate(348,412)"/>
<path d="M0 0 C2.1519437 3.22791555 2.20086443 4.28400809 2 8 C0.68388323 7.04663979 -0.62778961 6.08714226 -1.9375 5.125 C-2.66839844 4.59132812 -3.39929688 4.05765625 -4.15234375 3.5078125 C-6 2 -6 2 -7 0 C-2.25 -1.125 -2.25 -1.125 0 0 Z " fill="#EC8E49" transform="translate(172,241)"/>
<path d="M0 0 C0.99 0.33 1.98 0.66 3 1 C2 4 2 4 -1 6 C-4.1875 6.125 -4.1875 6.125 -7 6 C-4.74259377 3.66475218 -2.7194239 1.81294927 0 0 Z " fill="#F3C7A2" transform="translate(347,19)"/>
<path d="M0 0 C0.33 0.66 0.66 1.32 1 2 C0.07421875 4.12890625 0.07421875 4.12890625 -1.3125 6.5625 C-1.98732422 7.77099609 -1.98732422 7.77099609 -2.67578125 9.00390625 C-4 11 -4 11 -6 12 C-5.77169299 10.37181054 -5.51656424 8.7473651 -5.25 7.125 C-5.11078125 6.22007812 -4.9715625 5.31515625 -4.828125 4.3828125 C-4 2 -4 2 -1.921875 0.6796875 C-1.28765625 0.45539063 -0.6534375 0.23109375 0 0 Z " fill="#F8D5B7" transform="translate(476,190)"/>
<path d="M0 0 C0.99 0.33 1.98 0.66 3 1 C1.4375 3.4375 1.4375 3.4375 -1 6 C-4.75 6.8125 -4.75 6.8125 -8 7 C-5.52327657 4.3929227 -2.94900512 2.06430358 0 0 Z " fill="#EA8A45" transform="translate(340,25)"/>
<path d="M0 0 C0.33 0.66 0.66 1.32 1 2 C0.22265625 3.7265625 0.22265625 3.7265625 -0.9375 5.625 C-1.618125 6.73875 -2.29875 7.8525 -3 9 C-3.33 9 -3.66 9 -4 9 C-4.33 6.69 -4.66 4.38 -5 2 C-3.35 1.34 -1.7 0.68 0 0 Z " fill="#F3B19A" transform="translate(409,306)"/>
<path d="M0 0 C0.33 0.66 0.66 1.32 1 2 C-0.14453125 4.56640625 -0.14453125 4.56640625 -1.8125 7.5625 C-2.35519531 8.55378906 -2.89789063 9.54507812 -3.45703125 10.56640625 C-5 13 -5 13 -7 14 C-5.53967505 8.68972746 -3.01679014 4.53669968 0 0 Z " fill="#FEE7D8" transform="translate(364,384)"/>
<path d="M0 0 C0.33 0.66 0.66 1.32 1 2 C-0.1796875 4.53125 -0.1796875 4.53125 -1.875 7.5 C-2.42929688 8.4796875 -2.98359375 9.459375 -3.5546875 10.46875 C-4.03164062 11.3040625 -4.50859375 12.139375 -5 13 C-5.33 13.66 -5.66 14.32 -6 15 C-6.66 14.67 -7.32 14.34 -8 14 C-6.85632262 11.85299207 -5.71017393 9.70737007 -4.5625 7.5625 C-4.23701172 6.95083984 -3.91152344 6.33917969 -3.57617188 5.70898438 C-1.11328125 1.11328125 -1.11328125 1.11328125 0 0 Z " fill="#FDE9D1" transform="translate(116,379)"/>
<path d="M0 0 C2.6875 1.75 2.6875 1.75 5 4 C5 4.99 5 5.98 5 7 C1.63408134 5.55746343 -0.51047079 3.66735273 -3 1 C-2.01 0.67 -1.02 0.34 0 0 Z " fill="#EC9552" transform="translate(18,81)"/>
<path d="M0 0 C5.95507399 0.3916035 10.62819824 1.37124595 16 4 C16 4.33 16 4.66 16 5 C10.34979382 4.39891424 5.33835539 2.92471317 0 1 C0 0.67 0 0.34 0 0 Z " fill="#FEEDD9" transform="translate(245,64)"/>
<path d="M0 0 C1.31538327 4.15771494 0.34433068 6.8879297 -1 11 C-2.32 11.33 -3.64 11.66 -5 12 C-4.731875 11.505 -4.46375 11.01 -4.1875 10.5 C-2.56124507 7.0763054 -1.30484829 3.55867715 0 0 Z " fill="#EB985C" transform="translate(145,329)"/>
<path d="M0 0 C4.62 0.66 9.24 1.32 14 2 C14 2.33 14 2.66 14 3 C11.36 3.66 8.72 4.32 6 5 C6 4.34 6 3.68 6 3 C4.02 2.34 2.04 1.68 0 1 C0 0.67 0 0.34 0 0 Z " fill="#E99456" transform="translate(202,55)"/>
<path d="M0 0 C0.66 0 1.32 0 2 0 C2 0.66 2 1.32 2 2 C1.34 2 0.68 2 0 2 C0 4.97 0 7.94 0 11 C-1.32 10.34 -2.64 9.68 -4 9 C-2.68 6.03 -1.36 3.06 0 0 Z " fill="#E78C49" transform="translate(108,394)"/>
<path d="M0 0 C1 4 1 4 1 4 Z M-1 4 C-1 4.99 -1 5.98 -1 7 C-1.99 7.495 -1.99 7.495 -3 8 C-2.34 6.68 -1.68 5.36 -1 4 Z M-4 8 C-3.67 8.99 -3.34 9.98 -3 11 C-3.99 11.99 -4.98 12.98 -6 14 C-5.125 9.125 -5.125 9.125 -4 8 Z " fill="#ED652A" transform="translate(219,202)"/>
<path d="M0 0 C0.33 0.66 0.66 1.32 1 2 C-2.75 7.875 -2.75 7.875 -5 9 C-4.5206753 4.68607774 -3.2542015 2.83430453 0 0 Z " fill="#FA7B36" transform="translate(261,128)"/>
<path d="M0 0 C3 1 3 1 4 3 C3.401875 3.268125 2.80375 3.53625 2.1875 3.8125 C0.02775192 4.98493467 -1.35790256 6.19369282 -3 8 C-2.45276317 4.62537285 -1.9451 2.91765 0 0 Z " fill="#F87B38" transform="translate(287,81)"/>
<path d="M0 0 C3.81684226 1.55500981 6.19195732 4.03595495 9 7 C8.67 7.99 8.34 8.98 8 10 C6.66370254 8.52351062 5.33103329 7.0437367 4 5.5625 C3.2575 4.73878906 2.515 3.91507813 1.75 3.06640625 C0 1 0 1 0 0 Z " fill="#FBE5CE" transform="translate(107,180)"/>
<path d="M0 0 C2.31 0 4.62 0 7 0 C2.16353702 3.22430866 -0.26939984 3.09242903 -6 3 C-6 2.67 -6 2.34 -6 2 C-4.02 2 -2.04 2 0 2 C0 1.34 0 0.68 0 0 Z " fill="#F0B585" transform="translate(52,54)"/>
<path d="M0 0 C0.66 0 1.32 0 2 0 C0.55746343 3.36591866 -1.33264727 5.51047079 -4 8 C-3.40312566 4.65750371 -2.26396123 2.53563658 0 0 Z " fill="#FA7A36" transform="translate(196,240)"/>
<path d="M0 0 C2.4375 0.6875 2.4375 0.6875 5 2 C5.8125 4.625 5.8125 4.625 6 7 C4 5.625 4 5.625 2 4 C2 3.34 2 2.68 2 2 C1.34 2 0.68 2 0 2 C0 1.34 0 0.68 0 0 Z " fill="#E88F51" transform="translate(130,202)"/>
<path d="M0 0 C1 3 1 3 0.22265625 4.82421875 C-0.8515625 6.54947917 -1.92578125 8.27473958 -3 10 C-4.125 6.25 -4.125 6.25 -3 4 C-2.34 4 -1.68 4 -1 4 C-0.67 2.68 -0.34 1.36 0 0 Z " fill="#FDE9D1" transform="translate(483,177)"/>
<path d="M0 0 C1 3 1 3 0.22265625 4.82421875 C-0.8515625 6.54947917 -1.92578125 8.27473958 -3 10 C-3.75 8.375 -3.75 8.375 -4 6 C-2.0625 2.75 -2.0625 2.75 0 0 Z " fill="#FEEFDC" transform="translate(520,113)"/>
<path d="M0 0 C0.33 0.66 0.66 1.32 1 2 C0.22265625 3.7265625 0.22265625 3.7265625 -0.9375 5.625 C-1.618125 6.73875 -2.29875 7.8525 -3 9 C-3.75 7.3125 -3.75 7.3125 -4 5 C-2.0625 2.25 -2.0625 2.25 0 0 Z " fill="#FEEBD4" transform="translate(548,65)"/>
</svg>
